<mxfile host="app.diagrams.net" modified="2024-07-01T10:36:27.807Z" agent="Mozilla/5.0 (Windows NT 10.0; Win64; x64) AppleWebKit/537.36 (KHTML, like Gecko) Chrome/126.0.0.0 Safari/537.36 Edg/126.0.0.0" version="24.3.0" etag="AsnVmXXUfj08Ob1Ps2JS" type="github">
  <diagram name="PÃ¡gina-1" id="4owX2f2_gQE0-vy4Nwpa">
    <mxGraphModel>
      <root>
        <mxCell id="0" />
        <mxCell id="1" parent="0" />
      </root>
    </mxGraphModel>
  </diagram>
</mxfile>
